<svg width="159" height="30" viewBox="0 0 159 30" fill="none" xmlns="http://www.w3.org/2000/svg">
<path d="M8.58508 3.06081L6.41476 2.45313C6.41476 2.45313 5.71484 2.2578 5.71484 3.16933V24.1454C6.70653 24.1722 7.68411 23.9061 8.52539 23.3803L8.58508 3.06081Z" fill="#424143"/>
<path d="M15.0039 3.60833C15.0039 3.60833 15.7906 0.73267 17.4835 0.857463C19.1763 0.982256 19.8491 3.84164 19.9088 5.01361L19.0407 4.74232C19.0407 4.74232 18.8671 2.07826 17.4672 1.67676C17.4672 1.67676 16.3821 1.39462 15.8395 3.84707L15.0039 3.60833Z" fill="#6C6D70"/>
<path d="M7.80319 23.396V2.23547C7.80319 2.23547 7.83575 1.60608 8.40003 1.75258C8.96431 1.89908 26.3648 6.55439 26.3648 6.55439C26.4713 6.59522 26.5607 6.67135 26.618 6.77008C26.6752 6.86881 26.6969 6.98418 26.6795 7.09697V20.9815C26.6795 20.9815 26.7391 21.5241 26.3376 21.6218C25.9361 21.7194 10.9176 25.7562 10.9176 25.7562C10.9176 25.7562 4.40665 30.9107 1.45503 28.5071C-1.4966 26.1035 1.82398 20.1188 3.53853 18.1981C3.53853 18.1981 0.163697 22.4736 1.52014 25.9949C2.20921 28.29 5.77937 27.6824 7.27146 26.9444C8.76354 26.2065 13.5654 23.689 16.4356 18.974L14.9815 17.9648C13.3172 20.2871 11.232 22.2766 8.83408 23.8301C4.71049 26.2554 2.8386 25.2353 2.32315 24.1013C2.32315 24.1013 1.0915 21.676 4.61283 17.0912C4.61283 17.0912 2.50763 19.9018 2.91456 22.6201C3.80981 25.3601 7.54275 23.5425 7.80319 23.396Z" fill="#6C6D70"/>
<path d="M16.0386 18.0787L13.7109 16.5487L20.1405 11.7686L18.567 19.739L16.0386 18.0787Z" fill="white"/>
<path d="M19.2787 9.21875C19.346 9.22008 19.4108 9.24454 19.4622 9.28802C19.5136 9.33149 19.5484 9.39134 19.5609 9.45749L19.7725 10.6186C19.7856 10.696 19.7688 10.7755 19.7255 10.841C19.6822 10.9065 19.6156 10.9531 19.5392 10.9713C19.4615 10.9855 19.3813 10.9684 19.3162 10.9237C19.2511 10.8789 19.2064 10.8102 19.1919 10.7325L18.9803 9.566C18.966 9.48974 18.9825 9.41093 19.0263 9.34685C19.07 9.28277 19.1374 9.23865 19.2136 9.22418H19.2787V9.21875ZM21.2591 9.76133H21.3025H21.3351L21.411 9.79388C21.4754 9.83882 21.5194 9.90729 21.5337 9.98447C21.5479 10.0617 21.5311 10.1413 21.487 10.2062L20.8251 11.1937C20.806 11.2302 20.7794 11.2623 20.747 11.2878C20.7146 11.3134 20.6773 11.3318 20.6373 11.3419C20.5974 11.352 20.5557 11.3536 20.5151 11.3465C20.4745 11.3394 20.4359 11.3238 20.4017 11.3008C20.3675 11.2778 20.3386 11.2478 20.3168 11.2128C20.295 11.1778 20.2808 11.1386 20.2752 11.0978C20.2696 11.057 20.2727 11.0154 20.2842 10.9759C20.2957 10.9363 20.3155 10.8996 20.3422 10.8682L21.0095 9.91325C21.0382 9.87111 21.0772 9.83701 21.1228 9.81422C21.1684 9.79142 21.2191 9.78069 21.27 9.78303L21.2591 9.76133ZM17.8029 10.4721H17.8463H17.8789L17.9548 10.5047L18.9152 11.1612C18.9793 11.2062 19.0235 11.2742 19.0387 11.351C19.0539 11.4278 19.0388 11.5076 18.9966 11.5735C18.9525 11.6387 18.8844 11.6839 18.8072 11.6991C18.7299 11.7144 18.6498 11.6985 18.5842 11.6549L17.651 11.0418C17.5867 10.9969 17.5426 10.9284 17.5284 10.8512C17.5142 10.774 17.5309 10.6944 17.575 10.6295C17.6041 10.5874 17.6431 10.553 17.6885 10.5294C17.7338 10.5058 17.7843 10.4935 17.8355 10.4938L17.8029 10.4721ZM22.4799 11.3891C22.5478 11.3883 22.6137 11.4119 22.6655 11.4558C22.7173 11.4996 22.7516 11.5607 22.7621 11.6278C22.7765 11.7047 22.7601 11.7842 22.7165 11.8491C22.6728 11.9141 22.6054 11.9593 22.5288 11.975L21.3785 12.2084C21.3403 12.2162 21.3009 12.2161 21.2627 12.2082C21.2245 12.2003 21.1883 12.1847 21.1563 12.1623C21.1244 12.14 21.0973 12.1114 21.0767 12.0783C21.0561 12.0452 21.0425 12.0082 21.0367 11.9696C21.0288 11.9315 21.0286 11.8921 21.0361 11.8539C21.0436 11.8157 21.0587 11.7793 21.0804 11.747C21.1021 11.7147 21.1301 11.687 21.1626 11.6656C21.1952 11.6442 21.2317 11.6295 21.27 11.6224L22.4148 11.3945H22.4528L22.4799 11.3891Z" fill="white"/>
<path d="M20.9435 12.6691H20.9869H21.0195C21.0461 12.6766 21.0717 12.6875 21.0955 12.7016L22.0613 13.3581C22.1274 13.402 22.1735 13.4704 22.1893 13.5482C22.205 13.6261 22.1892 13.707 22.1453 13.7732C22.1015 13.8394 22.0331 13.8854 21.9552 13.9012C21.8774 13.917 21.7965 13.9012 21.7303 13.8573L20.7645 13.2008C20.7154 13.1622 20.6794 13.1094 20.6614 13.0496C20.6433 12.9899 20.6442 12.926 20.6637 12.8667C20.6833 12.8074 20.7207 12.7556 20.7707 12.7183C20.8208 12.681 20.8811 12.66 20.9435 12.6582V12.6691Z" fill="white"/>
<path d="M38.3986 19.0709V21.4419H36.5104C34.3401 21.4419 33.0108 20.1072 33.0108 17.926V13.7374H31.2148V13.1676L35.1051 9.0332H35.6151V11.5942H38.328V13.7645H35.6586V17.6005C35.6378 17.8037 35.6629 18.0089 35.7318 18.2012C35.8008 18.3934 35.912 18.5678 36.0572 18.7114C36.2024 18.855 36.3779 18.9643 36.5709 19.0312C36.7639 19.0981 36.9694 19.121 37.1723 19.098L38.3986 19.0709Z" fill="#424143"/>
<path d="M39.668 11.5949H42.332V21.4427H39.668V11.5949ZM39.668 7.79688H42.3212V10.271H39.668V7.79688Z" fill="#424143"/>
<path d="M53.8893 16.4836C53.8893 16.7448 53.873 17.0057 53.8405 17.2649H46.4072C46.4597 17.8559 46.7397 18.4035 47.1881 18.7922C47.6365 19.1808 48.2183 19.3802 48.8108 19.3484C49.2296 19.3622 49.6445 19.2633 50.0119 19.0619C50.3794 18.8605 50.686 18.564 50.8997 18.2035H53.6994C53.323 19.5144 52.4668 20.6354 51.3012 21.3434C50.1355 22.0514 48.746 22.2945 47.4093 22.0242C46.0725 21.754 44.8866 20.9903 44.0875 19.8851C43.2884 18.7799 42.9349 17.4144 43.0972 16.0603C43.2595 14.7062 43.9258 13.4629 44.9634 12.5778C46.0011 11.6928 47.334 11.2311 48.6967 11.2844C50.0595 11.3378 51.3521 11.9024 52.3174 12.8659C53.2826 13.8293 53.8497 15.1209 53.9056 16.4836H53.8893ZM46.4614 15.4472H51.2307C51.1009 14.9045 50.7874 14.4232 50.3435 14.0851C49.8995 13.7469 49.3523 13.5726 48.7945 13.5916C48.2489 13.5747 47.715 13.752 47.2878 14.0917C46.8606 14.4315 46.5678 14.9118 46.4614 15.4472Z" fill="#424143"/>
<path d="M64.4853 15.4746V21.443H61.8213V15.8816C61.8213 14.3949 61.2787 13.6787 60.1067 13.6787C58.734 13.6787 57.8984 14.6608 57.8984 16.2451V21.4213H55.2344V11.5952H57.0629L57.6055 12.816C58.0089 12.3505 58.5094 11.9791 59.0719 11.7279C59.6343 11.4766 60.245 11.3517 60.8609 11.3619C63.0855 11.3619 64.4853 12.9842 64.4853 15.4746Z" fill="#424143"/>
<path d="M76.2491 7.8073V21.4423H74.285L73.9703 20.623C73.1092 21.3506 72.0157 21.7453 70.8884 21.7353C69.507 21.7353 68.1821 21.1865 67.2053 20.2097C66.2285 19.2328 65.6797 17.908 65.6797 16.5265C65.6797 15.1451 66.2285 13.8202 67.2053 12.8434C68.1821 11.8665 69.507 11.3178 70.8884 11.3178C71.8544 11.3071 72.8007 11.591 73.6013 12.1316V7.79102L76.2491 7.8073ZM73.7858 16.4885C73.7794 15.9598 73.6167 15.4449 73.3183 15.0084C73.0199 14.5719 72.5991 14.2334 72.1088 14.0356C71.6185 13.8377 71.0807 13.7892 70.5629 13.8963C70.0451 14.0034 69.5706 14.2612 69.199 14.6373C68.8274 15.0134 68.5753 15.491 68.4745 16.01C68.3737 16.5291 68.4286 17.0663 68.6324 17.5542C68.8362 18.0421 69.1798 18.4588 69.6198 18.7519C70.0598 19.045 70.5767 19.2014 71.1055 19.2014C71.4617 19.2126 71.8165 19.1509 72.148 19.0201C72.4795 18.8892 72.7808 18.692 73.0333 18.4405C73.2859 18.1889 73.4843 17.8885 73.6165 17.5575C73.7487 17.2265 73.8119 16.8719 73.8021 16.5157L73.7858 16.4885Z" fill="#424143"/>
<path d="M88.299 11.5848V21.4272H86.2155L86.0147 20.5482C85.13 21.3152 83.9952 21.732 82.8244 21.7202C81.4742 21.6766 80.1939 21.1095 79.2542 20.139C78.3145 19.1684 77.7891 17.8705 77.7891 16.5196C77.7891 15.1687 78.3145 13.8707 79.2542 12.9002C80.1939 11.9296 81.4742 11.3626 82.8244 11.319C84.0219 11.3 85.1831 11.7296 86.0798 12.5235L86.362 11.5794L88.299 11.5848ZM85.6946 16.506C85.6893 15.9758 85.5271 15.459 85.2285 15.0208C84.9299 14.5826 84.5083 14.2426 84.0167 14.0436C83.5252 13.8446 82.9858 13.7956 82.4665 13.9027C81.9471 14.0099 81.4711 14.2683 81.0984 14.6455C80.7258 15.0227 80.4731 15.5018 80.3722 16.0224C80.2714 16.543 80.3269 17.0818 80.5318 17.5709C80.7367 18.0599 81.0818 18.4774 81.5235 18.7707C81.9653 19.064 82.484 19.2199 83.0143 19.2189C83.3713 19.2273 83.7263 19.1625 84.0574 19.0287C84.3886 18.8949 84.6888 18.6949 84.9398 18.4408C85.1909 18.1868 85.3873 17.8841 85.5171 17.5514C85.6469 17.2187 85.7073 16.8629 85.6946 16.506Z" fill="#424143"/>
<path d="M101.207 8.68164V21.4431H98.8956L93.0684 13.4672V21.4431H90.3555V8.68164H92.8459L98.4941 16.4622V8.68164H101.207Z" fill="#CE412B"/>
<path d="M112.769 16.4836C112.769 16.7448 112.753 17.0057 112.72 17.2649H105.27C105.323 17.8559 105.603 18.4035 106.051 18.7922C106.5 19.1808 107.082 19.3802 107.674 19.3484C108.093 19.3616 108.507 19.2624 108.875 19.0611C109.242 18.8598 109.549 18.5636 109.763 18.2035H112.563C112.186 19.5144 111.33 20.6354 110.164 21.3434C108.999 22.0514 107.609 22.2945 106.273 22.0242C104.936 21.754 103.75 20.9903 102.951 19.8851C102.152 18.7799 101.798 17.4144 101.96 16.0603C102.123 14.7062 102.789 13.4629 103.827 12.5778C104.864 11.6928 106.197 11.2311 107.56 11.2844C108.923 11.3378 110.215 11.9024 111.181 12.8659C112.146 13.8293 112.713 15.1209 112.769 16.4836ZM105.341 15.4472H110.11C109.98 14.9045 109.667 14.4232 109.223 14.0851C108.779 13.7469 108.232 13.5726 107.674 13.5916C107.128 13.5747 106.595 13.752 106.167 14.0917C105.74 14.4315 105.447 14.9118 105.341 15.4472Z" fill="#CE412B"/>
<path d="M127.963 11.5957L124.745 21.4435H122.602L120.378 16.3487L118.207 21.4435H116.064L112.809 11.5957H115.521L117.464 17.461L120.025 11.6662H120.741L123.394 17.5098L125.331 11.6228L127.963 11.5957Z" fill="#CE412B"/>
<path d="M132.162 21.7196C129.688 21.7196 128.038 20.3089 128.027 18.1982H130.621C130.621 19.0772 131.305 19.5113 132.249 19.5113C132.987 19.5113 133.648 19.1803 133.648 18.5184C133.648 17.8564 132.797 17.6448 131.755 17.4712C130.181 17.2053 128.185 16.7875 128.185 14.4653C128.185 12.6043 129.769 11.3184 132.146 11.3184C134.522 11.3184 136.079 12.6423 136.09 14.6064H133.562C133.562 13.8251 133.019 13.4398 132.075 13.4398C131.25 13.4398 130.762 13.8196 130.762 14.3839C130.762 15.0404 131.598 15.1924 132.623 15.3768C134.251 15.6644 136.28 16.0062 136.28 18.4044C136.28 20.412 134.652 21.7196 132.151 21.7196H132.162Z" fill="#CE412B"/>
<path d="M147.712 11.5848V21.4272H145.623L145.396 20.5482C144.511 21.3152 143.376 21.732 142.205 21.7202C140.855 21.6766 139.575 21.1095 138.635 20.139C137.695 19.1684 137.17 17.8705 137.17 16.5196C137.17 15.1687 137.695 13.8707 138.635 12.9002C139.575 11.9296 140.855 11.3626 142.205 11.319C143.403 11.3 144.564 11.7296 145.461 12.5235L145.748 11.5794L147.712 11.5848ZM145.103 16.506C145.097 15.9758 144.935 15.459 144.636 15.0208C144.338 14.5826 143.916 14.2426 143.425 14.0436C142.933 13.8446 142.394 13.7956 141.874 13.9027C141.355 14.0099 140.879 14.2683 140.506 14.6455C140.134 15.0227 139.881 15.5018 139.78 16.0224C139.679 16.543 139.735 17.0818 139.94 17.5709C140.145 18.0599 140.49 18.4774 140.932 18.7707C141.373 19.064 141.892 19.2199 142.422 19.2189C142.779 19.2273 143.134 19.1625 143.465 19.0287C143.797 18.8949 144.097 18.6949 144.348 18.4408C144.599 18.1868 144.795 17.8841 144.925 17.5514C145.055 17.2187 145.115 16.8629 145.103 16.506Z" fill="#CE412B"/>
<path d="M158.97 15.4746V21.443H156.306V15.8816C156.306 14.3949 155.763 13.6787 154.586 13.6787C153.218 13.6787 152.377 14.6608 152.377 16.2451V21.4213H149.719V11.5952H151.542L152.084 12.816C152.488 12.3505 152.988 11.9791 153.551 11.7279C154.113 11.4766 154.724 11.3517 155.34 11.3619C157.57 11.3619 158.97 12.9842 158.97 15.4746Z" fill="#CE412B"/>
</svg>
